<svg xmlns="http://www.w3.org/2000/svg" viewBox="0 0 512 512"><path fill="#0d77bd" d="M425.25,24H86.75A30.77,30.77,0,0,0,56,54.74V457.26A30.77,30.77,0,0,0,86.75,488h338.5A30.77,30.77,0,0,0,456,457.26V54.74A30.77,30.77,0,0,0,425.25,24ZM200,40H312V56H200Zm0,32H312V86a2,2,0,0,1-2,2H202a2,2,0,0,1-2-2Zm2,32H310a18,18,0,0,0,18-18V72h75.5c2.58,0,4.5,1.54,4.5,2.91V437.09c0,1.37-1.92,2.91-4.5,2.91h-295c-2.58,0-4.5-1.54-4.5-2.91V74.91c0-1.37,1.92-2.91,4.5-2.91H184V86A18,18,0,0,0,202,104ZM440,457.26A14.75,14.75,0,0,1,425.25,472H86.75A14.75,14.75,0,0,1,72,457.26V54.74A14.75,14.75,0,0,1,86.75,40H184V56H108.5C97.2,56,88,64.48,88,74.91V437.09C88,447.52,97.2,456,108.5,456h295c11.3,0,20.5-8.48,20.5-18.91V74.91C424,64.48,414.8,56,403.5,56H328V40h97.25A14.75,14.75,0,0,1,440,54.74Z"/><path fill="#94d4f0" d="M440,54.74V457.26A14.75,14.75,0,0,1,425.25,472H86.75A14.75,14.75,0,0,1,72,457.26V54.74A14.75,14.75,0,0,1,86.75,40H184V56H108.5C97.2,56,88,64.48,88,74.91V437.09C88,447.52,97.2,456,108.5,456h295c11.3,0,20.5-8.48,20.5-18.91V74.91C424,64.48,414.8,56,403.5,56H328V40h97.25A14.75,14.75,0,0,1,440,54.74Z"/><rect width="112" height="16" x="200" y="40" fill="#94d4f0"/><path fill="#94d4f0" d="M312,72V86a2,2,0,0,1-2,2H202a2,2,0,0,1-2-2V72Z"/><path fill="#94d4f0" d="M403.5,72H328V86a18,18,0,0,1-18,18H202a18,18,0,0,1-18-18V72H108.5c-2.58,0-4.5,1.54-4.5,2.91V437.09c0,1.37,1.92,2.91,4.5,2.91h295c2.58,0,4.5-1.54,4.5-2.91V74.91C408,73.54,406.08,72,403.5,72ZM184,384a8,8,0,0,1-8,8H144a8,8,0,0,1-8-8V352a8,8,0,0,1,8-8h32a8,8,0,0,1,8,8Zm6.4-91.2-24,32a8,8,0,0,1-5.83,3.18l-.57,0a8,8,0,0,1-5.66-2.34l-16-16a8,8,0,0,1,11.32-11.31l9.47,9.48L177.6,283.2a8,8,0,1,1,12.8,9.6Zm0-64-24,32a8,8,0,0,1-5.83,3.18l-.57,0a8,8,0,0,1-5.66-2.34l-16-16a8,8,0,0,1,11.32-11.31l9.47,9.48L177.6,219.2a8,8,0,1,1,12.8,9.6Zm0-64-24,32a8,8,0,0,1-5.83,3.18l-.57,0a8,8,0,0,1-5.66-2.34l-16-16a8,8,0,0,1,11.32-11.31l9.47,9.48L177.6,155.2a8,8,0,1,1,12.8,9.6ZM352,376H224a8,8,0,0,1,0-16H352a8,8,0,0,1,0,16Zm0-62.77H224a8,8,0,0,1,0-16H352a8,8,0,0,1,0,16Zm0-64H224a8,8,0,0,1,0-16H352a8,8,0,0,1,0,16Zm0-64H224a8,8,0,0,1,0-16H352a8,8,0,0,1,0,16Z"/><path fill="#0d77bd" d="M360 177.23a8 8 0 0 1-8 8H224a8 8 0 0 1 0-16H352A8 8 0 0 1 360 177.23zM360 241.23a8 8 0 0 1-8 8H224a8 8 0 0 1 0-16H352A8 8 0 0 1 360 241.23zM360 305.23a8 8 0 0 1-8 8H224a8 8 0 0 1 0-16H352A8 8 0 0 1 360 305.23zM360 368a8 8 0 0 1-8 8H224a8 8 0 0 1 0-16H352A8 8 0 0 1 360 368zM190.4 164.8l-24 32a8 8 0 0 1-5.83 3.18l-.57 0a8 8 0 0 1-5.66-2.34l-16-16a8 8 0 0 1 11.32-11.31l9.47 9.48L177.6 155.2a8 8 0 1 1 12.8 9.6zM190.4 228.8l-24 32a8 8 0 0 1-5.83 3.18l-.57 0a8 8 0 0 1-5.66-2.34l-16-16a8 8 0 0 1 11.32-11.31l9.47 9.48L177.6 219.2a8 8 0 1 1 12.8 9.6zM190.4 292.8l-24 32a8 8 0 0 1-5.83 3.18l-.57 0a8 8 0 0 1-5.66-2.34l-16-16a8 8 0 0 1 11.32-11.31l9.47 9.48L177.6 283.2a8 8 0 1 1 12.8 9.6zM176 344H144a8 8 0 0 0-8 8v32a8 8 0 0 0 8 8h32a8 8 0 0 0 8-8V352A8 8 0 0 0 176 344zm-8 32H152V360h16z"/><rect width="16" height="16" x="152" y="360" fill="#94d4f0"/></svg>