<svg xmlns="http://www.w3.org/2000/svg" viewBox="0 0 64 64"><g data-name="Stationery-Office Supplies-Planning-Management-Business"><path fill="#bddbff" d="M33 51h19v4H33zM57 47a4 4 0 0 1 0 8h-2v-8ZM33 47h19v4H33z"/><path fill="#bddbff" d="M28 31V19H16v12Zm26 24v2a4 4 0 0 1-4 4H29L10 42V7a4 4 0 0 1 4-4h32v6a2.006 2.006 0 0 0 2 2h6v24H25v8h29v4H32l-3 2h-2a2.015 2.015 0 0 0-2 2 2.006 2.006 0 0 0 2 2h2l3 2h22Z"/><path fill="#3d9ae2" d="M50 60H32v2h18a5 5 0 0 0 4.843-3.75l-1.938-.5A3 3 0 0 1 50 60zM11 7a3 3 0 0 1 3-3h31v5a3 3 0 0 0 3 3h5v20h2V11a1 1 0 0 0-.293-.707l-8-8A1 1 0 0 0 46 2H14a5.006 5.006 0 0 0-5 5v30h2zm36 2V5.414L51.586 10H48a1 1 0 0 1-1-1z"/><path fill="#3d9ae2" d="M15 8h2v2h-2zM19 8h6v2h-6zM15 12h10v2H15zM57 46H32a1.006 1.006 0 0 0-.555.168L28.7 48H27a3 3 0 0 0 0 6h1.7l2.748 1.832A1.006 1.006 0 0 0 32 56h25a5 5 0 0 0 0-10zm-6 4H34v-2h17zm-17 2h17v2H34zm19-4h1v6h-1zm-27 3a1 1 0 0 1 1-1h1v2h-1a1 1 0 0 1-1-1zm4 1.465v-2.93l2-1.335v5.6zM57 54h-1v-6h1a3 3 0 0 1 0 6zm4-20H25a1 1 0 0 0-1 1v8a1 1 0 0 0 1 1h36a1 1 0 0 0 1-1v-8a1 1 0 0 0-1-1zm-1 8h-4v-4h-2v4h-2v-2h-2v2h-2v-2h-2v2h-2v-4h-2v4h-2v-2h-2v2h-2v-2h-2v2h-2v-4h-2v4h-4v-6h34zM3.707 34.293A1 1 0 0 0 2 35v26a1 1 0 0 0 1 1h26a1 1 0 0 0 .707-1.707zM4 60V37.414L26.586 60z"/><path fill="#3d9ae2" d="M7 58h12.343a1 1 0 0 0 .707-1.707L7.707 43.95A1 1 0 0 0 6 44.657V57a1 1 0 0 0 1 1zm1-10.929L16.929 56H8zM29 31V19a1 1 0 0 0-1-1H16a1 1 0 0 0-1 1v12a1 1 0 0 0 1 1h12a1 1 0 0 0 1-1zm-2-1H17V20h10zM31 18h8v2h-8zM41 18h8v2h-8zM31 22h8v2h-8zM41 22h8v2h-8zM31 26h8v2h-8zM41 26h8v2h-8zM31 30h8v2h-8zM41 30h8v2h-8zM15 34h6v2h-6zM15 38h6v2h-6zM15 42h6v2h-6z"/></g></svg>