<svg xmlns="http://www.w3.org/2000/svg" viewBox="0 0 64 64"><path fill="#fbb03b" d="M34.71 42.61a8.4 8.4 0 0 1-3.06 1.93 11.523 11.523 0 0 1-3.31 8.67c-4.68 4.69-12.6 4.37-17.67-.7-.24-.24-.46-.48-.68-.73a12.847 12.847 0 0 1-2.26-13.77l1.2-2a10.36 10.36 0 0 1 1.03-1.18 11.531 11.531 0 0 1 8.68-3.31 8.243 8.243 0 0 1 1.92-3.06 9.174 9.174 0 0 1 11.03-1.12l4.2 4.2.04.04a9.174 9.174 0 0 1-1.12 11.03Z"/><path fill="#f49b25" d="M9.99 51.78c.22.25.44.49.68.73l-.71-.71Z"/><path fill="#f49b25" d="M37.54 45.44a8.243 8.243 0 0 1-3.06 1.92 11.531 11.531 0 0 1-3.31 8.68c-4.68 4.69-12.6 4.37-17.68-.71l-2.82-2.82c5.07 5.07 12.99 5.39 17.67.7a11.523 11.523 0 0 0 3.31-8.67 8.4 8.4 0 0 0 3.06-1.93 8.927 8.927 0 0 0 1.82-9.5 10.482 10.482 0 0 0-.7-1.53l.29-.29.71.71a10.894 10.894 0 0 1 1.28 1.54c2.64 3.82 2.51 8.82-.57 11.9Z"/><path fill="#f49b25" d="m36.12 31.29-.29.29-.04-.04.33-.25z"/><path fill="#ffc67b" d="m48.14 19.27-20.5 20.51-.01-.01a4.879 4.879 0 0 0-1.41-2.82 5.059 5.059 0 0 0-2.83-1.41L43.9 15.03Z"/><path fill="#f49b25" d="M26.22 44.02a5 5 0 0 1-7.07 0A4.877 4.877 0 0 1 18 42.19a4.981 4.981 0 0 1 5.39-6.65 4.79 4.79 0 0 1 .99.25 5.07 5.07 0 0 1 1.84 1.16 4.879 4.879 0 0 1 1.41 2.82 4.972 4.972 0 0 1-1.41 4.25Z"/><path fill="#fbb03b" d="m56.99 13.25-6.02 6.02a2 2 0 0 1-2.83 0l-.01-.01-4.23-4.23a2 2 0 0 1 0-2.83l6.02-6.02a1.485 1.485 0 0 1 2.1 0l4.77 4.77.2.2a1.485 1.485 0 0 1 0 2.1Z"/><path fill="#f49b25" d="m56.8 10.95.19.2-.2-.2h.01zM58.9 15.58l-5.81 5.81a2 2 0 0 1-2.83 0l-2.12-2.12a2 2 0 0 0 2.83 0l6.02-6.02a1.485 1.485 0 0 0 0-2.1l2.12 2.12a1.65 1.65 0 0 1-.21 2.31Z"/><path fill="#b3b3b3" d="M48.142 8.958a1 1 0 0 1-.707-.292l-1.414-1.415a1 1 0 0 1 1.414-1.414l1.414 1.414a1 1 0 0 1-.707 1.707zm8.485 8.486a1 1 0 0 1-.707-.293l-1.414-1.415a1 1 0 0 1 1.414-1.414l1.414 1.415a1 1 0 0 1-.707 1.707zm-11.314-5.657a1 1 0 0 1-.707-.293l-1.414-1.414a1 1 0 0 1 1.414-1.414l1.415 1.414a1 1 0 0 1-.708 1.707zm8.487 8.485a1 1 0 0 1-.707-.293l-1.414-1.414a1 1 0 0 1 1.414-1.414l1.414 1.414a1 1 0 0 1-.707 1.707zM48.85 10.08l1.415-1.415 1.414 1.415-1.414 1.414zM46.02 12.908l1.415-1.414 1.414 1.414-1.414 1.414zM51.678 12.908l1.414-1.414 1.414 1.414-1.414 1.414zM48.85 15.737l1.414-1.414 1.414 1.414-1.414 1.414z"/><path fill="#fcb968" d="m50.26 21.39-3.25 3.26-1.38 1.37-7.52 7.52A10.894 10.894 0 0 0 36.83 32l-.71-.71 12.02-12.02Z"/><path fill="#f79e46" d="M19.873 53.316a10.138 10.138 0 0 1-1.925-.185 1 1 0 0 1 .381-1.964 7.974 7.974 0 0 0 5.839-1.111 1 1 0 1 1 1.08 1.683 9.934 9.934 0 0 1-5.375 1.577Z"/><ellipse cx="6" cy="23" fill="#33a4db" rx="3" ry="2"/><path fill="#33a4db" d="M6 26c-2.243 0-4-1.318-4-3s1.757-3 4-3 4 1.318 4 3-1.757 3-4 3Zm0-4c-1.221 0-2 .592-2 1s.779 1 2 1 2-.592 2-1-.779-1-2-1Z"/><path fill="#33a4db" d="M9 24a1 1 0 0 1-1-1V13a1 1 0 0 1 .8-.98l10-2A1 1 0 0 1 20 11v10a1 1 0 0 1-2 0v-8.78l-8 1.6V23a1 1 0 0 1-1 1Z"/><ellipse cx="16" cy="21" fill="#33a4db" rx="3" ry="2"/><path fill="#33a4db" d="M16 24c-2.243 0-4-1.318-4-3s1.757-3 4-3 4 1.318 4 3-1.757 3-4 3Zm0-4c-1.221 0-2 .592-2 1s.779 1 2 1 2-.592 2-1-.779-1-2-1Z"/><ellipse cx="42" cy="57" fill="#f28d4e" rx="3" ry="2"/><path fill="#f19332" d="M42 60c-2.243 0-4-1.318-4-3s1.757-3 4-3 4 1.318 4 3-1.757 3-4 3Zm0-4c-1.221 0-2 .592-2 1s.779 1 2 1 2-.592 2-1-.779-1-2-1Z"/><path fill="#f19332" d="M45 58a1 1 0 0 1-1-1V47a1 1 0 0 1 .8-.98l10-2A1 1 0 0 1 56 45v10a1 1 0 0 1-2 0v-8.78l-8 1.6V57a1 1 0 0 1-1 1Z"/><ellipse cx="52" cy="55" fill="#f28d4e" rx="3" ry="2"/><path fill="#f19332" d="M52 58c-2.243 0-4-1.318-4-3s1.757-3 4-3 4 1.318 4 3-1.757 3-4 3Zm0-4c-1.221 0-2 .592-2 1s.779 1 2 1 2-.592 2-1-.779-1-2-1Z"/><path fill="#00a197" d="M33 15a1 1 0 0 1-1-1V4a1 1 0 0 1 2 0v10a1 1 0 0 1-1 1Z"/><ellipse cx="30" cy="14" fill="#00a197" rx="3" ry="2"/><path fill="#00a197" d="M30 17c-2.243 0-4-1.318-4-3s1.757-3 4-3 4 1.318 4 3-1.757 3-4 3Zm0-4c-1.221 0-2 .592-2 1s.779 1 2 1 2-.592 2-1-.779-1-2-1Z"/><path fill="#c1272d" d="M61 35a1 1 0 0 1-1-1V24a1 1 0 0 1 2 0v10a1 1 0 0 1-1 1Z"/><ellipse cx="58" cy="34" fill="#c1272d" rx="3" ry="2"/><path fill="#c1272d" d="M58 37c-2.243 0-4-1.318-4-3s1.757-3 4-3 4 1.318 4 3-1.757 3-4 3Zm0-4c-1.221 0-2 .592-2 1s.779 1 2 1 2-.592 2-1-.779-1-2-1Z"/></svg>